<svg width="55" height="22" viewBox="0 0 55 22" fill="none" xmlns="http://www.w3.org/2000/svg">
<g id="_&#235;&#160;&#136;&#236;&#157;&#180;&#236;&#150;&#180;_1" clip-path="url(#clip0_755_12745)">
<path id="Vector" fill-rule="evenodd" clip-rule="evenodd" d="M43.2051 21.7967H11.7976C5.59977 21.7967 0.57959 16.9646 0.57959 11.0017C0.57959 5.03887 5.60256 0.204102 11.7976 0.204102H43.2051C49.4001 0.204102 54.4231 5.03887 54.4231 11.0017C54.4231 16.9646 49.4029 21.7994 43.2051 21.7994" fill="#FFF100"/>
<g id="Group">
<path id="Vector_2" fill-rule="evenodd" clip-rule="evenodd" d="M13.1762 5.38574C9.79681 5.38574 7.05371 7.47006 7.05371 10.0405C7.05371 11.6924 8.18946 13.1429 9.89448 13.9701L9.31684 16.0437C9.29452 16.1082 9.31405 16.1753 9.36149 16.221C9.39498 16.2532 9.43962 16.2693 9.48706 16.2693C9.52334 16.2693 9.55962 16.2559 9.5931 16.2317L12.0739 14.6201C12.4339 14.6685 12.8022 14.698 13.1762 14.698C16.5555 14.698 19.2986 12.6137 19.2986 10.0432C19.2986 7.47275 16.5583 5.38843 13.1762 5.38843V5.38574Z" fill="#040000"/>
<path id="Vector_3" d="M24.4584 13.9088V16.9144H22.2344V5.82938H23.8027L24.0761 6.53311C24.5477 6.07918 25.2649 5.5957 26.423 5.5957C28.6024 5.5957 29.6377 7.16432 29.6209 9.69988C29.6209 12.3536 28.022 14.0539 25.7365 14.0539C25.2956 14.0539 24.9607 14.0243 24.4584 13.9061V13.9088ZM24.4584 7.61825V12.4127C24.5812 12.4262 24.8854 12.4557 25.1756 12.4557C26.7606 12.4557 27.369 11.3867 27.369 9.69988C27.369 8.21991 26.9588 7.32547 25.6946 7.32547C25.2844 7.32547 24.8268 7.44366 24.4612 7.61825H24.4584Z" fill="#040000"/>
<path id="Vector_4" d="M34.4625 8.95245H35.7266V8.68922C35.7266 7.8109 35.2076 7.39995 34.309 7.39995C33.6226 7.39995 32.7407 7.59065 32.0236 7.92909L31.4152 6.49209C32.2077 5.96295 33.4244 5.59766 34.5072 5.59766C36.6391 5.59766 37.7972 6.68279 37.7972 8.751V13.8382H36.2289L36.0001 13.1641C35.1015 13.7953 34.2783 14.0585 33.5333 14.0585C31.9036 14.0585 30.9883 13.1211 30.9883 11.5364C30.9883 9.84956 32.2077 8.95513 34.4597 8.95513L34.4625 8.95245ZM35.7266 11.7808V10.3142H34.7053C33.564 10.3142 32.9835 10.7091 32.9835 11.5014C32.9835 12.1031 33.3044 12.3959 33.9574 12.3959C34.5658 12.3959 35.3443 12.1031 35.7238 11.7808H35.7266Z" fill="#040000"/>
<path id="Vector_5" d="M44.5306 13.0139C43.7549 15.0069 42.8256 16.46 41.4694 17.2658L40.0993 16.0491C40.8918 15.3883 41.4555 14.7437 41.941 13.8788L38.9858 6.12436L41.1932 5.55225L43.0824 11.8428L44.9548 5.52539L47.1342 6.11093L44.5306 13.0166V13.0139Z" fill="#040000"/>
</g>
</g>
<defs>
<clipPath id="clip0_755_12745">
<rect width="53.8407" height="21.5926" fill="white" transform="translate(0.57959 0.204102)"/>
</clipPath>
</defs>
</svg>
