<svg width="55" height="22" viewBox="0 0 55 22" fill="none" xmlns="http://www.w3.org/2000/svg">
<g id="_&#235;&#160;&#136;&#236;&#157;&#180;&#236;&#150;&#180;_1" clip-path="url(#clip0_181_3269)">
<g id="Group">
<path id="Vector" fill-rule="evenodd" clip-rule="evenodd" d="M13.1771 5.38477C9.79779 5.38477 7.05469 7.46909 7.05469 10.0396C7.05469 11.6914 8.19044 13.1419 9.89546 13.9692L9.31782 16.0427C9.29549 16.1072 9.31503 16.1743 9.36247 16.22C9.39595 16.2522 9.4406 16.2684 9.48804 16.2684C9.52432 16.2684 9.56059 16.2549 9.59408 16.2308L12.0749 14.6192C12.4349 14.6675 12.8032 14.6971 13.1771 14.6971C16.5565 14.6971 19.2996 12.6127 19.2996 10.0423C19.2996 7.47177 16.5593 5.38745 13.1771 5.38745V5.38477Z" fill="#040000"/>
<path id="Vector_2" d="M24.4584 13.9073V16.913H22.2344V5.82792H23.8027L24.0761 6.53165C24.5477 6.07771 25.2649 5.59424 26.423 5.59424C28.6024 5.59424 29.6377 7.16285 29.6209 9.69842C29.6209 12.3522 28.022 14.0524 25.7365 14.0524C25.2956 14.0524 24.9607 14.0228 24.4584 13.9047V13.9073ZM24.4584 7.61678V12.4113C24.5812 12.4247 24.8854 12.4542 25.1756 12.4542C26.7606 12.4542 27.369 11.3852 27.369 9.69842C27.369 8.21844 26.9588 7.32401 25.6946 7.32401C25.2844 7.32401 24.8268 7.44219 24.4612 7.61678H24.4584Z" fill="#040000"/>
<path id="Vector_3" d="M34.4625 8.95196H35.7266V8.68873C35.7266 7.81042 35.2076 7.39946 34.309 7.39946C33.6226 7.39946 32.7407 7.59017 32.0236 7.9286L31.4152 6.4916C32.2077 5.96246 33.4244 5.59717 34.5072 5.59717C36.6391 5.59717 37.7972 6.6823 37.7972 8.75051V13.8378H36.2289L36.0001 13.1636C35.1015 13.7948 34.2783 14.058 33.5333 14.058C31.9036 14.058 30.9883 13.1206 30.9883 11.5359C30.9883 9.84907 32.2077 8.95464 34.4597 8.95464L34.4625 8.95196ZM35.7266 11.7803V10.3137H34.7053C33.564 10.3137 32.9835 10.7086 32.9835 11.501C32.9835 12.1026 33.3044 12.3954 33.9574 12.3954C34.5658 12.3954 35.3443 12.1026 35.7238 11.7803H35.7266Z" fill="#040000"/>
<path id="Vector_4" d="M44.5311 13.0129C43.7554 15.0059 42.8261 16.459 41.4699 17.2648L40.0998 16.0481C40.8923 15.3873 41.456 14.7427 41.9415 13.8778L38.9863 6.12339L41.1936 5.55127L43.0828 11.8418L44.9553 5.52441L47.1347 6.10996L44.5311 13.0156V13.0129Z" fill="#040000"/>
</g>
</g>
<defs>
<clipPath id="clip0_181_3269">
<rect width="53.8407" height="21.5926" fill="white" transform="translate(0.580078 0.203613)"/>
</clipPath>
</defs>
</svg>
