<svg width="30" height="30" viewBox="0 0 30 30" fill="none" xmlns="http://www.w3.org/2000/svg">
<g id="Apple Store">
<path id="Vector (Stroke)" fill-rule="evenodd" clip-rule="evenodd" d="M17.981 3.25806C18.5489 3.58935 18.7408 4.3183 18.4095 4.88622L11.1205 17.3816H16.1907C16.8482 17.3816 17.3812 17.9146 17.3812 18.5721C17.3812 19.2296 16.8482 19.7626 16.1907 19.7626H4.28594C3.62845 19.7626 3.09546 19.2296 3.09546 18.5721C3.09546 17.9146 3.62845 17.3816 4.28594 17.3816H8.36407L13.1621 9.15649L10.4293 4.93309C10.0721 4.38109 10.2301 3.64406 10.7821 3.28688C11.3341 2.92971 12.0711 3.08765 12.4283 3.63965L14.5066 6.8516L16.3529 3.68653C16.6842 3.11861 17.4131 2.92678 17.981 3.25806ZM16.1742 11.6202C16.7262 11.263 17.4632 11.421 17.8204 11.973L21.3201 17.3816H25.7145C26.372 17.3816 26.905 17.9146 26.905 18.5721C26.905 19.2296 26.372 19.7626 25.7145 19.7626H22.8608L25.5235 23.8777C25.8807 24.4297 25.7228 25.1668 25.1708 25.524C24.6188 25.8811 23.8817 25.7232 23.5245 25.1712L15.8214 13.2664C15.4643 12.7144 15.6222 11.9774 16.1742 11.6202ZM7.27937 21.5195C7.84316 21.8577 8.02598 22.589 7.68772 23.1528L6.49724 25.137C6.15898 25.7007 5.42771 25.8836 4.86393 25.5453C4.30014 25.207 4.11731 24.4758 4.45558 23.912L5.64606 21.9278C5.98432 21.364 6.71558 21.1812 7.27937 21.5195Z" fill="#BFF9FA"/>
</g>
</svg>
