<svg width="21" height="20" viewBox="0 0 21 20" fill="none" xmlns="http://www.w3.org/2000/svg">
<g id="Apple Store">
<path id="Vector (Stroke)" fill-rule="evenodd" clip-rule="evenodd" d="M12.5866 1.78019C12.9842 2.01209 13.1185 2.52235 12.8866 2.9199L7.78428 11.6667H11.3334C11.7937 11.6667 12.1667 12.0398 12.1667 12.5C12.1667 12.9602 11.7937 13.3333 11.3334 13.3333H3.00008C2.53984 13.3333 2.16675 12.9602 2.16675 12.5C2.16675 12.0398 2.53984 11.6667 3.00008 11.6667H5.85477L9.21336 5.90909L7.30044 2.95271C7.05041 2.56631 7.16097 2.05038 7.54738 1.80036C7.93378 1.55034 8.4497 1.6609 8.69973 2.0473L10.1545 4.29566L11.4469 2.08011C11.6788 1.68257 12.1891 1.54829 12.5866 1.78019ZM11.3219 7.6337C11.7083 7.38367 12.2242 7.49423 12.4742 7.88063L14.924 11.6667H18.0001C18.4603 11.6667 18.8334 12.0398 18.8334 12.5C18.8334 12.9602 18.4603 13.3333 18.0001 13.3333H16.0025L17.8664 16.214C18.1164 16.6004 18.0059 17.1163 17.6195 17.3663C17.2331 17.6163 16.7171 17.5058 16.4671 17.1194L11.0749 8.78605C10.8249 8.39965 10.9355 7.88372 11.3219 7.6337ZM5.09549 14.5632C5.49014 14.8 5.61812 15.3118 5.38133 15.7065L4.548 17.0954C4.31121 17.4901 3.79933 17.618 3.40467 17.3813C3.01002 17.1445 2.88205 16.6326 3.11883 16.2379L3.95217 14.849C4.18895 14.4544 4.70084 14.3264 5.09549 14.5632Z" fill="white"/>
</g>
</svg>
