<svg width="29" height="30" viewBox="0 0 29 30" fill="none" xmlns="http://www.w3.org/2000/svg">
<g id="Apple Store">
<path id="Vector (Stroke)" fill-rule="evenodd" clip-rule="evenodd" d="M17.481 3.25806C18.0489 3.58935 18.2408 4.3183 17.9095 4.88622L10.6205 17.3816H15.6907C16.3482 17.3816 16.8812 17.9146 16.8812 18.5721C16.8812 19.2296 16.3482 19.7626 15.6907 19.7626H3.78594C3.12845 19.7626 2.59546 19.2296 2.59546 18.5721C2.59546 17.9146 3.12845 17.3816 3.78594 17.3816H7.86407L12.6621 9.15649L9.9293 4.93309C9.57213 4.38109 9.73007 3.64406 10.2821 3.28688C10.8341 2.92971 11.5711 3.08765 11.9283 3.63965L14.0066 6.8516L15.8529 3.68653C16.1842 3.11861 16.9131 2.92678 17.481 3.25806ZM15.6742 11.6202C16.2262 11.263 16.9632 11.421 17.3204 11.973L20.8201 17.3816H25.2145C25.872 17.3816 26.405 17.9146 26.405 18.5721C26.405 19.2296 25.872 19.7626 25.2145 19.7626H22.3608L25.0235 23.8777C25.3807 24.4297 25.2228 25.1668 24.6708 25.524C24.1188 25.8811 23.3817 25.7232 23.0245 25.1712L15.3214 13.2664C14.9643 12.7144 15.1222 11.9774 15.6742 11.6202ZM6.77937 21.5195C7.34316 21.8577 7.52598 22.589 7.18772 23.1528L5.99724 25.137C5.65898 25.7007 4.92771 25.8836 4.36393 25.5453C3.80014 25.207 3.61731 24.4758 3.95558 23.912L5.14606 21.9278C5.48432 21.364 6.21558 21.1812 6.77937 21.5195Z" fill="#262626"/>
</g>
</svg>
