<svg enable-background="new 0 0 512 512" viewBox="0 0 512 512" xmlns="http://www.w3.org/2000/svg"><path d="m435.527 292.935c-2.139-28.571-81.693-51.54-179.527-51.54-87.633 0-160.592 18.43-176.394 42.806-2.721.984-4.67 3.583-4.67 6.643v160.039c0 17.305 19.378 32.141 56.04 42.903 33.492 9.832 77.893 15.247 125.023 15.247s91.531-5.415 125.023-15.247c36.662-10.763 56.04-25.599 56.04-42.903v-153.556c.001-1.661-.575-3.185-1.535-4.392zm-12.647 158.75-40.201-40.201 40.244-40.244v79.644c0 .265-.017.533-.043.801zm-108.73 8.331-48.532-48.532 48.532-48.532 48.532 48.532zm0 19.997 10.698 10.698c-7.574.979-15.533 1.81-23.863 2.467zm-165.592-68.529 48.532-48.532 48.532 48.532-48.532 48.532zm61.631 81.629c-8.277-.666-16.187-1.503-23.712-2.487l10.612-10.612zm-121.108-42.15c0-.026-.004-.053-.004-.079v-78.883l39.483 39.483zm-.004-137.373c3.569 2.634 7.843 5.163 12.749 7.568l-12.749 12.749zm.95 39.363 25.863-25.864c16.071 5.878 36.341 10.723 59.479 14.142l11.721 11.721-48.532 48.532zm117.061 0 7.527-7.527c13.287.92 27.141 1.409 41.385 1.409 13.99 0 27.606-.47 40.675-1.359l7.476 7.476-48.532 48.532zm117.061 0 11.592-11.592c23.24-3.387 43.624-8.208 59.812-14.069l25.66 25.66-48.532 48.532zm85.517-31.543c5.122-2.48 9.564-5.094 13.257-7.82v21.077zm-267.339-47.465c31.195-8.072 71.565-12.518 113.673-12.518s82.479 4.445 113.673 12.518c29.693 7.684 41.897 16.335 45.214 20.17-3.317 3.835-15.521 12.487-45.214 20.17-31.195 8.072-71.565 12.518-113.673 12.518s-82.479-4.445-113.673-12.518c-29.693-7.683-41.897-16.335-45.214-20.17 3.316-3.835 15.521-12.486 45.214-20.17zm-45.251 189.02 41.483-41.483 48.532 48.532-17.969 17.969c-35.317-6.163-60.146-15.637-72.046-25.018zm134.393 31.43-24.381-24.381 48.532-48.532 48.532 48.532-24.415 24.415c-7.656.303-15.571.464-23.736.464-8.451.001-16.628-.174-24.532-.498zm110.761-6.299-18.081-18.081 48.532-48.532 41.815 41.815c-12.135 9.329-37.024 18.71-72.266 24.798z" fill="#bfbcaf"/><path d="m256 311.846c-85.311 0-154.717-69.406-154.717-154.717 0-85.312 69.406-154.718 154.717-154.718s154.717 69.406 154.717 154.718c0 85.311-69.406 154.717-154.717 154.717z" fill="#ff6f1f"/><path d="m410.514 165.094h-89.899c3.265 37.135 29.121 67.885 63.706 78.382-3.143 4.656-6.54 9.126-10.157 13.404-38.32-13.993-66.378-49.475-69.532-91.786h-40.667v146.549c-2.639.134-5.294.203-7.966.203s-5.327-.068-7.966-.203v-146.549h-40.906c-3.15 42.243-31.123 77.68-69.349 91.72-3.612-4.276-7.002-8.745-10.14-13.398 34.486-10.555 60.247-41.258 63.506-78.322h-89.659c-.134-2.638-.203-5.294-.203-7.965 0-2.672.068-5.328.203-7.966h89.659c-3.259-37.064-29.02-67.767-63.506-78.321 3.138-4.653 6.529-9.121 10.14-13.397 38.226 14.039 66.199 49.476 69.349 91.719h40.906v-146.55c2.639-.134 5.294-.203 7.966-.203s5.327.068 7.966.203v146.549h40.667c3.155-42.31 31.213-77.792 69.533-91.785 3.617 4.278 7.014 8.748 10.157 13.404-34.586 10.497-60.441 41.246-63.706 78.381h89.899c.135 2.639.203 5.295.203 7.966-.001 2.671-.069 5.327-.204 7.965z" fill="#844c26"/></svg>