<svg width="16" height="16" viewBox="0 0 16 16" fill="none" xmlns="http://www.w3.org/2000/svg">
<g id="Icon">
<path id="Ellipse 7 (Stroke)" fill-rule="evenodd" clip-rule="evenodd" d="M7.99992 13.3334C10.9454 13.3334 13.3333 10.9456 13.3333 8.00004C13.3333 5.05452 10.9454 2.66671 7.99992 2.66671C5.0544 2.66671 2.66659 5.05452 2.66659 8.00004C2.66659 10.9456 5.0544 13.3334 7.99992 13.3334ZM7.99992 14.6667C11.6818 14.6667 14.6666 11.6819 14.6666 8.00004C14.6666 4.31814 11.6818 1.33337 7.99992 1.33337C4.31802 1.33337 1.33325 4.31814 1.33325 8.00004C1.33325 11.6819 4.31802 14.6667 7.99992 14.6667Z" fill="#F1F1F1"/>
<path id="Vector 74 (Stroke)" fill-rule="evenodd" clip-rule="evenodd" d="M7.99992 4.66663C8.36811 4.66663 8.66659 4.9651 8.66659 5.33329V7.72382L9.97132 9.02855C10.2317 9.2889 10.2317 9.71101 9.97132 9.97136C9.71097 10.2317 9.28886 10.2317 9.02851 9.97136L7.52851 8.47136C7.40349 8.34634 7.33325 8.17677 7.33325 7.99996V5.33329C7.33325 4.9651 7.63173 4.66663 7.99992 4.66663Z" fill="#F1F1F1"/>
</g>
</svg>
