<svg width="24" height="24" viewBox="0 0 24 24" fill="none" xmlns="http://www.w3.org/2000/svg">
<g id="Frame 1094187">
<rect id="Rectangle 4119" x="2.5" y="11.5" width="4" height="1" rx="0.5" stroke="#171717"/>
<rect id="Rectangle 4120" x="17.5" y="11.5" width="4" height="1" rx="0.5" stroke="#171717"/>
<path id="Vector 76" d="M11.2601 8.68607L7.55593 4.61152C7.23327 4.2566 7.21626 3.72598 7.58856 3.42355C8.31585 2.83275 9.74155 2 12 2C14.2585 2 15.6842 2.83275 16.4114 3.42355C16.7837 3.72598 16.7667 4.2566 16.4441 4.61152L12.7399 8.68607C12.3432 9.1225 11.6568 9.1225 11.2601 8.68607Z" fill="#7FEEF0"/>
<rect id="Rectangle 4122" x="12.5" y="17.5" width="4" height="1" rx="0.5" transform="rotate(90 12.5 17.5)" stroke="#171717"/>
<path id="Rectangle 4123" d="M18.364 5.63606V5.63606C21.8787 9.15077 21.8787 14.8493 18.364 18.364V18.364C14.8492 21.8787 9.15076 21.8787 5.63604 18.364V18.364C2.12132 14.8493 2.12132 9.15077 5.63604 5.63606V5.63606" stroke="#171717" stroke-width="2" stroke-linecap="round"/>
<rect id="Rectangle 4124" x="10.5" y="10.5" width="3" height="3" rx="1.5" fill="#171717" stroke="#171717"/>
</g>
</svg>
