<svg width="130" height="67" viewBox="0 0 130 67" fill="none" xmlns="http://www.w3.org/2000/svg">
<path d="M56.9254 0L49.2445 43.4838H38.6523L43.298 17.4059L28.9273 43.4838H20.3792L15.176 17.282L10.5922 43.4838H0L7.68091 0H20.1933L27.1309 30.1042L44.4749 0H56.9254Z" fill="white"/>
<path d="M75.1347 0L67.4538 43.4838H56.8615L64.5424 0H75.1347Z" fill="white"/>
<path d="M114.092 0L112.667 8.36228H101.084L94.8896 43.4838H84.2974L90.4916 8.36228H78.9703L80.4569 0H114.092Z" fill="white"/>
<path d="M130 0L122.319 43.4838H111.727L119.408 0H130Z" fill="white"/>
<path d="M12.7041 53.5912V66.0258H11.0689V56.7538L6.93605 66.0258H5.78603L1.63518 56.7358V66.0258H0V53.5912H1.76097L6.36104 63.8695L10.9611 53.5912H12.7041Z" fill="white"/>
<path d="M22.8805 63.2406H17.4179L16.4116 66.0258H14.6866L19.2148 53.5732H21.1016L25.6118 66.0258H23.8868L22.8805 63.2406ZM22.4133 61.9109L20.1492 55.5858L17.8851 61.9109H22.4133Z" fill="white"/>
<path d="M34.3776 66.0258L29.2205 60.3116V66.0258H27.5853V53.5014H29.2205V59.3054L34.3956 53.5014H36.462L30.7838 59.7726L36.5159 66.0258H34.3776Z" fill="white"/>
<path d="M39.9773 54.8311V59.0179H44.5415V60.3655H39.9773V64.6781H45.0805V66.0258H38.3421V53.4834H45.0805V54.8311H39.9773Z" fill="white"/>
<path d="M53.9806 53.5014V66.0258H52.3454V53.5014H53.9806Z" fill="white"/>
<path d="M64.4762 53.5014V54.8311H61.062V66.0258H59.4269V54.8311H55.9948V53.5014H64.4762Z" fill="white"/>
<path d="M78.9883 53.5014V54.8311H75.5741V66.0258H73.939V54.8311H70.5069V53.5014H78.9883Z" fill="white"/>
<path d="M88.4043 63.2406H82.9417L81.9355 66.0258H80.2104L84.7386 53.5732H86.6254L91.1356 66.0258H89.4106L88.4043 63.2406ZM87.9371 61.9109L85.673 55.5858L83.4089 61.9109H87.9371Z" fill="white"/>
<path d="M99.9014 66.0258L94.7443 60.3116V66.0258H93.1091V53.5014H94.7443V59.3054L99.9194 53.5014H101.986L96.3076 59.7726L102.04 66.0258H99.9014Z" fill="white"/>
<path d="M105.501 54.8311V59.0179H110.065V60.3655H105.501V64.6781H110.604V66.0258H103.866V53.4834H110.604V54.8311H105.501Z" fill="white"/>
<path d="M119.504 53.5014V66.0258H117.869V53.5014H119.504Z" fill="white"/>
<path d="M130 53.5014V54.8311H126.586V66.0258H124.951V54.8311H121.519V53.5014H130Z" fill="white"/>
</svg>
