<svg width="29" height="30" viewBox="0 0 29 30" fill="none" xmlns="http://www.w3.org/2000/svg">
<g id="google-play">
<path id="Vector" d="M7.17486 3.39264C7.10686 3.38548 7.04602 3.41769 6.97445 3.42127C6.9136 3.42485 6.8635 3.41053 6.80266 3.42127C6.79192 3.42127 6.78477 3.42127 6.77403 3.42127C6.7454 3.42127 6.71677 3.42127 6.68814 3.42127C6.58793 3.44274 6.4913 3.48211 6.40183 3.53579C6.3052 3.58589 6.21573 3.65389 6.14415 3.73621C5.78626 4.03683 5.57153 4.50208 5.57153 4.9387V25.8106C5.57153 26.2615 5.77195 26.8055 6.25867 27.0704C6.29446 27.0882 6.33741 27.0847 6.3732 27.099C6.40183 27.1097 6.43046 27.1205 6.45909 27.1276C6.89571 27.2744 7.35023 27.1885 7.69022 26.9845C7.70095 26.9845 7.70811 26.9845 7.71885 26.9845C8.11252 26.7447 16.3367 21.7164 16.3367 21.7164L20.7173 19.0823C20.7173 19.0823 24.4321 16.8348 24.926 16.5342C25.3447 16.2801 25.7348 15.797 25.7277 15.2172C25.7205 14.6374 25.3197 14.2079 24.926 13.9861C24.8007 13.9145 23.6984 13.2524 22.6928 12.6404C21.7301 12.0535 20.8855 11.5453 20.8032 11.4952C20.7745 11.4737 20.7459 11.4558 20.7173 11.4379L16.3367 8.77524C16.3367 8.77524 8.36662 3.9402 7.89063 3.65031C7.67948 3.52505 7.42896 3.42127 7.17486 3.39264ZM7.40391 6.22709L16.0504 15.2458L7.40391 24.2645V6.22709ZM11.8131 8.17399C13.4307 9.1546 15.3919 10.3499 15.3919 10.3499L18.7704 12.4114L17.3102 13.9288L11.8131 8.17399ZM20.3737 13.3848C20.7244 13.5995 21.0465 13.7892 21.748 14.2151C22.5138 14.6804 23.0471 14.9774 23.4945 15.2458C22.6534 15.754 21.0573 16.7382 20.4023 17.1354L18.5986 15.2458L20.3737 13.3848ZM17.3102 16.5915L18.7704 18.1089L15.3919 20.1703C15.3919 20.1703 13.3842 21.3764 11.7844 22.3463L17.3102 16.5915Z" fill="#262626"/>
</g>
</svg>
