<svg width="21" height="20" viewBox="0 0 21 20" fill="none" xmlns="http://www.w3.org/2000/svg">
<g id="google-play">
<path id="Vector" d="M5.37233 1.87501C5.32473 1.87 5.28214 1.89254 5.23204 1.89505C5.18945 1.89755 5.15438 1.88753 5.11179 1.89505C5.10427 1.89505 5.09926 1.89505 5.09175 1.89505C5.07171 1.89505 5.05166 1.89505 5.03162 1.89505C4.96148 1.91008 4.89384 1.93764 4.83121 1.97521C4.76357 2.01029 4.70094 2.05789 4.65083 2.11551C4.40031 2.32594 4.25 2.65162 4.25 2.95725V17.5676C4.25 17.8832 4.39029 18.264 4.731 18.4494C4.75605 18.4619 4.78611 18.4594 4.81116 18.4695C4.83121 18.477 4.85125 18.4845 4.87129 18.4895C5.17692 18.5922 5.49508 18.5321 5.73308 18.3893C5.74059 18.3893 5.7456 18.3893 5.75312 18.3893C6.02869 18.2214 11.7856 14.7016 11.7856 14.7016L14.852 12.8578C14.852 12.8578 17.4524 11.2845 17.7981 11.0741C18.0912 10.8962 18.3643 10.558 18.3593 10.1522C18.3543 9.74635 18.0737 9.44572 17.7981 9.2904C17.7104 9.2403 16.9388 8.77683 16.2349 8.34844C15.561 7.93759 14.9698 7.58185 14.9121 7.54678C14.8921 7.53175 14.872 7.51922 14.852 7.5067L11.7856 5.64283C11.7856 5.64283 6.20656 2.2583 5.87337 2.05538C5.72556 1.9677 5.5502 1.89505 5.37233 1.87501ZM5.53266 3.85913L11.5852 10.1722L5.53266 16.4853V3.85913ZM8.61907 5.22195C9.75142 5.90838 11.1243 6.74512 11.1243 6.74512L13.4892 8.18811L12.4671 9.25032L8.61907 5.22195ZM14.6115 8.86953C14.857 9.01984 15.0825 9.15261 15.5735 9.45073C16.1096 9.77641 16.4829 9.98434 16.796 10.1722C16.2073 10.528 15.09 11.2169 14.6315 11.495L13.3689 10.1722L14.6115 8.86953ZM12.4671 11.1142L13.4892 12.1764L11.1243 13.6194C11.1243 13.6194 9.71885 14.4636 8.59903 15.1425L12.4671 11.1142Z" fill="white"/>
</g>
</svg>
