<svg width="27" height="22" viewBox="0 0 27 22" fill="none" xmlns="http://www.w3.org/2000/svg">
<g id="Vector">
<mask id="path-1-inside-1_172_2374" fill="white">
<path d="M0 0.875V3.125H27V0.875H0ZM0 9.875V12.125H27V9.875H0ZM0 18.875V21.125H27V18.875H0Z"/>
</mask>
<path d="M0 0.875V3.125H27V0.875H0ZM0 9.875V12.125H27V9.875H0ZM0 18.875V21.125H27V18.875H0Z" fill="white"/>
<path d="M0 0.875V-2.125H-3V0.875H0ZM0 3.125H-3V6.125H0V3.125ZM27 3.125V6.125H30V3.125H27ZM27 0.875H30V-2.125H27V0.875ZM0 9.875V6.875H-3V9.875H0ZM0 12.125H-3V15.125H0V12.125ZM27 12.125V15.125H30V12.125H27ZM27 9.875H30V6.875H27V9.875ZM0 18.875V15.875H-3V18.875H0ZM0 21.125H-3V24.125H0V21.125ZM27 21.125V24.125H30V21.125H27ZM27 18.875H30V15.875H27V18.875ZM-3 0.875V3.125H3V0.875H-3ZM0 6.125H27V0.125H0V6.125ZM30 3.125V0.875H24V3.125H30ZM27 -2.125H0V3.875H27V-2.125ZM-3 9.875V12.125H3V9.875H-3ZM0 15.125H27V9.125H0V15.125ZM30 12.125V9.875H24V12.125H30ZM27 6.875H0V12.875H27V6.875ZM-3 18.875V21.125H3V18.875H-3ZM0 24.125H27V18.125H0V24.125ZM30 21.125V18.875H24V21.125H30ZM27 15.875H0V21.875H27V15.875Z" fill="white" mask="url(#path-1-inside-1_172_2374)"/>
</g>
</svg>
