<svg width="25" height="24" viewBox="0 0 25 24" fill="none" xmlns="http://www.w3.org/2000/svg">
<g id="TailingIcon">
<path id="Vector" d="M12.5049 6.5C15.2649 6.5 17.5049 8.74 17.5049 11.5C17.5049 12.15 17.3749 12.76 17.1449 13.33L20.0649 16.25C21.5749 14.99 22.7649 13.36 23.4949 11.5C21.7649 7.11 17.4949 4 12.4949 4C11.0949 4 9.75488 4.25 8.51488 4.7L10.6749 6.86C11.2449 6.63 11.8549 6.5 12.5049 6.5ZM2.50488 3.77L5.24488 6.51C3.58488 7.8 2.28488 9.52 1.50488 11.5C3.23488 15.89 7.50488 19 12.5049 19C14.0549 19 15.5349 18.7 16.8849 18.16L17.3049 18.58L20.2349 21.5L21.5049 20.23L3.77488 2.5L2.50488 3.77ZM8.03488 9.3L9.58488 10.85C9.53488 11.06 9.50488 11.28 9.50488 11.5C9.50488 13.16 10.8449 14.5 12.5049 14.5C12.7249 14.5 12.9449 14.47 13.1549 14.42L14.7049 15.97C14.0349 16.3 13.2949 16.5 12.5049 16.5C9.74488 16.5 7.50488 14.26 7.50488 11.5C7.50488 10.71 7.70488 9.97 8.03488 9.3ZM12.3449 8.52L15.4949 11.67L15.5149 11.51C15.5149 9.85 14.1749 8.51 12.5149 8.51L12.3449 8.52Z" fill="#737373"/>
</g>
</svg>
