<svg width="16" height="16" viewBox="0 0 16 16" fill="none" xmlns="http://www.w3.org/2000/svg">
<g id="Navigation / Map_Pin">
<path id="Vector" fill-rule="evenodd" clip-rule="evenodd" d="M7.1405 13.7153C5.87012 12.6751 3 9.96204 3 6.68124C3 5.43965 3.4987 4.24915 4.38638 3.37122C5.27407 2.49329 6.47808 2 7.73346 2C8.98883 2 10.1927 2.49322 11.0804 3.37115C11.9681 4.24908 12.4668 5.43995 12.4668 6.68154C12.4668 9.96234 9.59679 12.6752 8.3264 13.7154C8.1439 13.8648 8.05255 13.9394 7.91665 13.9777C7.81103 14.0074 7.65558 14.0074 7.54995 13.9777C7.41431 13.9395 7.32232 13.8642 7.1405 13.7153ZM6.381 6.0572C6.381 6.80411 6.98649 7.4096 7.7334 7.4096C8.48031 7.4096 9.0858 6.80411 9.0858 6.0572C9.0858 5.31029 8.48031 4.7048 7.7334 4.7048C6.98649 4.7048 6.381 5.31029 6.381 6.0572Z" fill="#D9D9D9"/>
</g>
</svg>
