<svg width="18" height="12" viewBox="0 0 18 12" fill="none" xmlns="http://www.w3.org/2000/svg">
<g id="Frame 1094186" clip-path="url(#clip0_127_1083)">
<path id="Vector" d="M5 5.07166C6.10457 5.07166 7 4.17622 7 3.07166C7 1.96709 6.10457 1.07166 5 1.07166C3.89543 1.07166 3 1.96709 3 3.07166C3 4.17622 3.89543 5.07166 5 5.07166Z" fill="#737373"/>
<path id="Vector_2" d="M13 5.07166C14.1046 5.07166 15 4.17622 15 3.07166C15 1.96709 14.1046 1.07166 13 1.07166C11.8954 1.07166 11 1.96709 11 3.07166C11 4.17622 11.8954 5.07166 13 5.07166Z" fill="#737373"/>
<path id="Ellipse 3" d="M10 11.0717C7 11.0717 5 11.0717 5 11.0717C5 11.0717 4.5 11.0717 0 11.0717C0 8.31023 2.23858 6.07166 5 6.07166C7.76142 6.07166 10 8.31023 10 11.0717Z" fill="#737373"/>
<path id="Ellipse 4" d="M18 11.0717C15 11.0717 13 11.0717 13 11.0717C13 11.0717 12.5 11.0717 8 11.0717C8 8.31023 10.2386 6.07166 13 6.07166C15.7614 6.07166 18 8.31023 18 11.0717Z" fill="#737373"/>
</g>
<defs>
<clipPath id="clip0_127_1083">
<rect width="18" height="11" fill="white" transform="translate(0 0.5)"/>
</clipPath>
</defs>
</svg>
