<svg width="36" height="36" viewBox="0 0 36 36" fill="none" xmlns="http://www.w3.org/2000/svg">
<g id="Frame 1094401">
<circle id="Ellipse 429" cx="18" cy="18" r="18" fill="#D9D9D9"/>
<g id="Intersect">
<mask id="path-2-inside-1_156_1995" fill="white">
<path fill-rule="evenodd" clip-rule="evenodd" d="M5.2124 30.668L5.58565 29.9974C7.96811 25.7166 12.4827 23.0625 17.3818 23.0625H17.9999L18.9518 23.0938C23.3631 23.2387 27.4251 25.5308 29.8295 29.2321L30.7723 30.6833C27.5115 33.9669 22.9931 36 17.9999 36C12.999 36 8.47436 33.9606 5.2124 30.668Z"/>
</mask>
<path fill-rule="evenodd" clip-rule="evenodd" d="M5.2124 30.668L5.58565 29.9974C7.96811 25.7166 12.4827 23.0625 17.3818 23.0625H17.9999L18.9518 23.0938C23.3631 23.2387 27.4251 25.5308 29.8295 29.2321L30.7723 30.6833C27.5115 33.9669 22.9931 36 17.9999 36C12.999 36 8.47436 33.9606 5.2124 30.668Z" fill="white"/>
<path d="M5.58565 29.9974L4.60264 29.4503L5.58565 29.9974ZM5.2124 30.668L4.22939 30.1209L3.81839 30.8594L4.41321 31.4598L5.2124 30.668ZM17.9999 23.0625L18.0369 21.9381L18.0184 21.9375H17.9999V23.0625ZM18.9518 23.0938L18.9149 24.2182L18.9518 23.0938ZM29.8295 29.2321L30.773 28.6192L29.8295 29.2321ZM30.7723 30.6833L31.5706 31.476L32.2103 30.8318L31.7157 30.0704L30.7723 30.6833ZM4.60264 29.4503L4.22939 30.1209L6.19542 31.2151L6.56867 30.5445L4.60264 29.4503ZM17.3818 21.9375C12.0745 21.9375 7.18363 24.8128 4.60264 29.4503L6.56867 30.5445C8.75258 26.6204 12.891 24.1875 17.3818 24.1875V21.9375ZM17.9999 21.9375H17.3818V24.1875H17.9999V21.9375ZM18.9887 21.9694L18.0369 21.9381L17.963 24.1869L18.9149 24.2182L18.9887 21.9694ZM30.773 28.6192C28.1681 24.6095 23.7677 22.1263 18.9887 21.9694L18.9149 24.2182C22.9586 24.351 26.682 26.4521 28.8861 29.845L30.773 28.6192ZM31.7157 30.0704L30.773 28.6192L28.8861 29.845L29.8289 31.2962L31.7157 30.0704ZM29.9741 29.8906C26.9158 32.9702 22.6814 34.875 17.9999 34.875V37.125C23.3049 37.125 28.1072 34.9636 31.5706 31.476L29.9741 29.8906ZM17.9999 34.875C13.3113 34.875 9.07095 32.9643 6.0116 29.8763L4.41321 31.4598C7.87777 34.9568 12.6867 37.125 17.9999 37.125V34.875Z" fill="white" mask="url(#path-2-inside-1_156_1995)"/>
</g>
<rect id="Rectangle 4139" x="12.9375" y="9.5625" width="10.125" height="10.125" rx="5.0625" fill="white" stroke="white" stroke-width="1.125"/>
</g>
</svg>
