<svg width="14" height="13" viewBox="0 0 14 13" fill="none" xmlns="http://www.w3.org/2000/svg">
<path id="Star 40" d="M6.25762 0.848679C6.52634 0.179504 7.47366 0.179505 7.74238 0.84868L8.88184 3.68619C8.99628 3.97115 9.26372 4.16546 9.5701 4.18624L12.6208 4.39309C13.3403 4.44188 13.633 5.34282 13.0797 5.80518L10.7331 7.76571C10.4975 7.96261 10.3953 8.27701 10.4703 8.57481L11.2163 11.5402C11.3922 12.2395 10.6258 12.7963 10.0151 12.4129L7.42537 10.787C7.16529 10.6238 6.83471 10.6238 6.57463 10.787L3.98494 12.4129C3.37421 12.7963 2.60782 12.2395 2.78375 11.5402L3.52975 8.57481C3.60467 8.27701 3.50251 7.96261 3.26686 7.76571L0.920339 5.80518C0.366955 5.34282 0.659691 4.44188 1.37915 4.39309L4.4299 4.18624C4.73628 4.16546 5.00372 3.97115 5.11816 3.68619L6.25762 0.848679Z" fill="#FAD73B" stroke="#FAD73B" stroke-width="0.5"/>
</svg>
