<svg width="16" height="16" viewBox="0 0 16 16" fill="none" xmlns="http://www.w3.org/2000/svg">
<g id="Icon">
<path id="Ellipse 7 (Stroke)" fill-rule="evenodd" clip-rule="evenodd" d="M7.99992 13.3333C10.9454 13.3333 13.3333 10.9455 13.3333 7.99998C13.3333 5.05446 10.9454 2.66665 7.99992 2.66665C5.0544 2.66665 2.66659 5.05446 2.66659 7.99998C2.66659 10.9455 5.0544 13.3333 7.99992 13.3333ZM7.99992 14.6666C11.6818 14.6666 14.6666 11.6819 14.6666 7.99998C14.6666 4.31808 11.6818 1.33331 7.99992 1.33331C4.31802 1.33331 1.33325 4.31808 1.33325 7.99998C1.33325 11.6819 4.31802 14.6666 7.99992 14.6666Z" fill="#737373"/>
<path id="Vector 74 (Stroke)" fill-rule="evenodd" clip-rule="evenodd" d="M7.99992 4.66669C8.36811 4.66669 8.66659 4.96516 8.66659 5.33335V7.72388L9.97132 9.02862C10.2317 9.28896 10.2317 9.71108 9.97132 9.97142C9.71097 10.2318 9.28886 10.2318 9.02851 9.97142L7.52851 8.47143C7.40349 8.3464 7.33325 8.17683 7.33325 8.00002V5.33335C7.33325 4.96516 7.63173 4.66669 7.99992 4.66669Z" fill="#737373"/>
</g>
</svg>
