<svg width="125" height="44" viewBox="0 0 125 44" fill="none" xmlns="http://www.w3.org/2000/svg">
<g id="Union">
<mask id="path-1-inside-1_181_1586" fill="white">
<path fill-rule="evenodd" clip-rule="evenodd" d="M16 0C7.16344 0 0 7.16344 0 16V19C0 27.8366 7.16345 35 16 35H50.5395L60.7146 43.5359C61.4581 44.1596 62.542 44.1596 63.2854 43.5359L73.4605 35H109C117.837 35 125 27.8366 125 19V16C125 7.16344 117.837 0 109 0H16Z"/>
</mask>
<path fill-rule="evenodd" clip-rule="evenodd" d="M16 0C7.16344 0 0 7.16344 0 16V19C0 27.8366 7.16345 35 16 35H50.5395L60.7146 43.5359C61.4581 44.1596 62.542 44.1596 63.2854 43.5359L73.4605 35H109C117.837 35 125 27.8366 125 19V16C125 7.16344 117.837 0 109 0H16Z" fill="white"/>
<path d="M50.5395 35L51.1822 34.2339L50.9034 34H50.5395V35ZM60.7146 43.5359L60.0719 44.302L60.7146 43.5359ZM63.2854 43.5359L63.9281 44.302L63.2854 43.5359ZM73.4605 35V34H73.0965L72.8178 34.2339L73.4605 35ZM1 16C1 7.71573 7.71573 1 16 1V-1C6.61116 -1 -1 6.61116 -1 16H1ZM1 19V16H-1V19H1ZM16 34C7.71573 34 1 27.2843 1 19H-1C-1 28.3888 6.61116 36 16 36V34ZM50.5395 34H16V36H50.5395V34ZM61.3573 42.7698L51.1822 34.2339L49.8968 35.7661L60.0719 44.302L61.3573 42.7698ZM62.6427 42.7698C62.271 43.0817 61.729 43.0817 61.3573 42.7698L60.0719 44.302C61.1871 45.2376 62.8129 45.2376 63.9281 44.302L62.6427 42.7698ZM72.8178 34.2339L62.6427 42.7698L63.9281 44.302L74.1032 35.7661L72.8178 34.2339ZM109 34H73.4605V36H109V34ZM124 19C124 27.2843 117.284 34 109 34V36C118.389 36 126 28.3888 126 19H124ZM124 16V19H126V16H124ZM109 1C117.284 1 124 7.71573 124 16H126C126 6.61116 118.389 -1 109 -1V1ZM16 1H109V-1H16V1Z" fill="#4065F5" mask="url(#path-1-inside-1_181_1586)"/>
</g>
</svg>
