<svg width="125" height="45" viewBox="0 0 125 45" fill="none" xmlns="http://www.w3.org/2000/svg">
<g id="Union">
<mask id="path-1-inside-1_181_1830" fill="white">
<path fill-rule="evenodd" clip-rule="evenodd" d="M16 0.0117188C7.16344 0.0117188 0 7.17516 0 16.0117V19.0117C0 27.8483 7.16345 35.0117 16 35.0117H50.5395L60.7146 43.5476C61.4581 44.1713 62.542 44.1713 63.2854 43.5476L73.4605 35.0117H109C117.837 35.0117 125 27.8483 125 19.0117V16.0117C125 7.17516 117.837 0.0117188 109 0.0117188H16Z"/>
</mask>
<path fill-rule="evenodd" clip-rule="evenodd" d="M16 0.0117188C7.16344 0.0117188 0 7.17516 0 16.0117V19.0117C0 27.8483 7.16345 35.0117 16 35.0117H50.5395L60.7146 43.5476C61.4581 44.1713 62.542 44.1713 63.2854 43.5476L73.4605 35.0117H109C117.837 35.0117 125 27.8483 125 19.0117V16.0117C125 7.17516 117.837 0.0117188 109 0.0117188H16Z" fill="#4065F5"/>
<path d="M50.5395 35.0117L51.1822 34.2456L50.9034 34.0117H50.5395V35.0117ZM60.7146 43.5476L60.0719 44.3138L60.7146 43.5476ZM63.2854 43.5476L63.9281 44.3138L63.2854 43.5476ZM73.4605 35.0117V34.0117H73.0965L72.8178 34.2456L73.4605 35.0117ZM1 16.0117C1 7.72745 7.71573 1.01172 16 1.01172V-0.988281C6.61116 -0.988281 -1 6.62288 -1 16.0117H1ZM1 19.0117V16.0117H-1V19.0117H1ZM16 34.0117C7.71573 34.0117 1 27.296 1 19.0117H-1C-1 28.4006 6.61116 36.0117 16 36.0117V34.0117ZM50.5395 34.0117H16V36.0117H50.5395V34.0117ZM61.3573 42.7815L51.1822 34.2456L49.8968 35.7778L60.0719 44.3138L61.3573 42.7815ZM62.6427 42.7815C62.271 43.0934 61.729 43.0934 61.3573 42.7815L60.0719 44.3138C61.1871 45.2493 62.8129 45.2493 63.9281 44.3138L62.6427 42.7815ZM72.8178 34.2456L62.6427 42.7815L63.9281 44.3138L74.1032 35.7778L72.8178 34.2456ZM109 34.0117H73.4605V36.0117H109V34.0117ZM124 19.0117C124 27.296 117.284 34.0117 109 34.0117V36.0117C118.389 36.0117 126 28.4006 126 19.0117H124ZM124 16.0117V19.0117H126V16.0117H124ZM109 1.01172C117.284 1.01172 124 7.72745 124 16.0117H126C126 6.62288 118.389 -0.988281 109 -0.988281V1.01172ZM16 1.01172H109V-0.988281H16V1.01172Z" fill="#4065F5" mask="url(#path-1-inside-1_181_1830)"/>
</g>
</svg>
