<svg width="17" height="17" viewBox="0 0 17 17" fill="none" xmlns="http://www.w3.org/2000/svg">
<path id="Vector" d="M0.925781 6.71289C0.925781 10.1577 3.73096 12.9629 7.17578 12.9629C8.67236 12.9629 10.0444 12.438 11.1211 11.5566L16.1016 16.5371L17 15.6387L12.0195 10.6582C12.9009 9.58154 13.4258 8.20947 13.4258 6.71289C13.4258 3.26807 10.6206 0.462891 7.17578 0.462891C3.73096 0.462891 0.925781 3.26807 0.925781 6.71289ZM2.17578 6.71289C2.17578 3.94434 4.40723 1.71289 7.17578 1.71289C9.94434 1.71289 12.1758 3.94434 12.1758 6.71289C12.1758 9.48145 9.94434 11.7129 7.17578 11.7129C4.40723 11.7129 2.17578 9.48145 2.17578 6.71289Z" fill="#969696"/>
</svg>
