<svg width="30" height="31" viewBox="0 0 30 31" fill="none" xmlns="http://www.w3.org/2000/svg">
<g id="share_mobile">
<path id="Vector" d="M10.625 13H8.125C7.95924 13 7.80027 13.0658 7.68306 13.1831C7.56585 13.3003 7.5 13.4592 7.5 13.625V24.875C7.5 25.0408 7.56585 25.1997 7.68306 25.3169C7.80027 25.4342 7.95924 25.5 8.125 25.5H20.625C20.7908 25.5 20.9497 25.4342 21.0669 25.3169C21.1842 25.1997 21.25 25.0408 21.25 24.875V13.625C21.25 13.4592 21.1842 13.3003 21.0669 13.1831C20.9497 13.0658 20.7908 13 20.625 13H18.125M14.375 18V4.25M14.375 4.25L10 8M14.375 4.25L18.75 8" stroke="#999999" stroke-width="2" stroke-linecap="round" stroke-linejoin="round"/>
</g>
</svg>
