<svg width="16" height="16" viewBox="0 0 16 16" fill="none" xmlns="http://www.w3.org/2000/svg">
<g id="Frame 1094186">
<path id="Vector" d="M5 6C6.10457 6 7 5.10457 7 4C7 2.89543 6.10457 2 5 2C3.89543 2 3 2.89543 3 4C3 5.10457 3.89543 6 5 6Z" fill="#737373"/>
<path id="Vector_2" d="M11 6C12.1046 6 13 5.10457 13 4C13 2.89543 12.1046 2 11 2C9.89543 2 9 2.89543 9 4C9 5.10457 9.89543 6 11 6Z" fill="#737373"/>
<path id="Ellipse 4" d="M15 14C12.6 14 11 14 11 14C11 14 10.6 14 7 14C7 10.6863 8.79086 8 11 8C13.2091 8 15 10.6863 15 14Z" fill="#737373"/>
<path id="Ellipse 5" d="M9 14C6.6 14 5 14 5 14C5 14 4.6 14 1 14C1 10.6863 2.79086 8 5 8C7.20914 8 9 10.6863 9 14Z" fill="#737373"/>
</g>
</svg>
