<svg width="119" height="52" viewBox="0 0 119 52" fill="none" xmlns="http://www.w3.org/2000/svg">
<mask id="path-1-inside-1_471_2586" fill="white">
<path fill-rule="evenodd" clip-rule="evenodd" d="M16 8C7.16344 8 0 15.1634 0 24V27C0 35.8366 7.16344 43 16 43H44.8791L53.6825 51.3167C54.4534 52.045 55.6586 52.045 56.4295 51.3167L65.2329 43H95C103.837 43 111 35.8366 111 27V24C111 15.1634 103.837 8 95 8H16Z"/>
</mask>
<path fill-rule="evenodd" clip-rule="evenodd" d="M16 8C7.16344 8 0 15.1634 0 24V27C0 35.8366 7.16344 43 16 43H44.8791L53.6825 51.3167C54.4534 52.045 55.6586 52.045 56.4295 51.3167L65.2329 43H95C103.837 43 111 35.8366 111 27V24C111 15.1634 103.837 8 95 8H16Z" fill="white"/>
<path d="M44.8791 43L45.5658 42.2731L45.2768 42H44.8791V43ZM53.6825 51.3167L52.9958 52.0436V52.0437L53.6825 51.3167ZM56.4295 51.3167L55.7427 50.5898H55.7427L56.4295 51.3167ZM65.2329 43V42H64.8352L64.5462 42.2731L65.2329 43ZM1 24C1 15.7157 7.71573 9 16 9V7C6.61116 7 -1 14.6112 -1 24H1ZM1 27V24H-1V27H1ZM16 42C7.71573 42 1 35.2843 1 27H-1C-1 36.3888 6.61116 44 16 44V42ZM44.8791 42H16V44H44.8791V42ZM54.3693 50.5898L45.5658 42.2731L44.1924 43.7269L52.9958 52.0436L54.3693 50.5898ZM55.7427 50.5898C55.3573 50.9539 54.7547 50.9539 54.3693 50.5898L52.9958 52.0437C54.1521 53.136 55.9599 53.136 57.1162 52.0436L55.7427 50.5898ZM64.5462 42.2731L55.7427 50.5898L57.1162 52.0436L65.9196 43.7269L64.5462 42.2731ZM95 42H65.2329V44H95V42ZM110 27C110 35.2843 103.284 42 95 42V44C104.389 44 112 36.3888 112 27H110ZM110 24V27H112V24H110ZM95 9C103.284 9 110 15.7157 110 24H112C112 14.6112 104.389 7 95 7V9ZM16 9H95V7H16V9Z" fill="#4065F5" mask="url(#path-1-inside-1_471_2586)"/>
<circle cx="109" cy="10" r="9.5" fill="white" stroke="#4065F5"/>
<path d="M108.268 13.5312V11.3398H106.076V9.875H108.268V7.68359H109.732V9.875H111.924V11.3398H109.732V13.5312H108.268Z" fill="#4065F5"/>
<path d="M20 15.75C16.2822 15.75 13.25 18.7822 13.25 22.5C13.25 23.5547 13.6777 24.7646 14.2578 26.0859C14.8379 27.4072 15.585 28.8105 16.3438 30.1172C17.8613 32.7334 19.3906 34.9219 19.3906 34.9219L20 35.8125L20.6094 34.9219C20.6094 34.9219 22.1387 32.7334 23.6562 30.1172C24.415 28.8105 25.1621 27.4072 25.7422 26.0859C26.3223 24.7646 26.75 23.5547 26.75 22.5C26.75 18.7822 23.7178 15.75 20 15.75ZM20 17.25C22.9092 17.25 25.25 19.5908 25.25 22.5C25.25 23.1006 24.9277 24.2373 24.3828 25.4766C23.8379 26.7158 23.085 28.0898 22.3438 29.3672C21.166 31.4004 20.4336 32.4756 20 33.1172C19.5664 32.4756 18.834 31.4004 17.6562 29.3672C16.915 28.0898 16.1621 26.7158 15.6172 25.4766C15.0723 24.2373 14.75 23.1006 14.75 22.5C14.75 19.5908 17.0908 17.25 20 17.25ZM20 21C19.1709 21 18.5 21.6709 18.5 22.5C18.5 23.3291 19.1709 24 20 24C20.8291 24 21.5 23.3291 21.5 22.5C21.5 21.6709 20.8291 21 20 21Z" fill="#4065F5"/>
</svg>
