<svg width="119" height="54" viewBox="0 0 119 54" fill="none" xmlns="http://www.w3.org/2000/svg">
<mask id="path-1-inside-1_471_2566" fill="white">
<path fill-rule="evenodd" clip-rule="evenodd" d="M16 8C7.16344 8 0 15.1634 0 24V27C0 35.8366 7.16344 43 16 43L44 43L54.1705 52.6083C54.9414 53.3365 56.1466 53.3365 56.9175 52.6083L67.088 43H95C103.837 43 111 35.8366 111 27V24C111 15.1634 103.837 8 95 8H16Z"/>
</mask>
<path fill-rule="evenodd" clip-rule="evenodd" d="M16 8C7.16344 8 0 15.1634 0 24V27C0 35.8366 7.16344 43 16 43L44 43L54.1705 52.6083C54.9414 53.3365 56.1466 53.3365 56.9175 52.6083L67.088 43H95C103.837 43 111 35.8366 111 27V24C111 15.1634 103.837 8 95 8H16Z" fill="#4065F5"/>
<path d="M16 43V42V43ZM44 43L44.6867 42.2731L44.3977 42H44V43ZM54.1705 52.6083L53.4838 53.3352V53.3352L54.1705 52.6083ZM56.9175 52.6083L56.2307 51.8814L56.9175 52.6083ZM67.088 43V42H66.6903L66.4013 42.2731L67.088 43ZM1 24C1 15.7157 7.71573 9 16 9V7C6.61116 7 -1 14.6112 -1 24H1ZM1 27V24H-1V27H1ZM16 42C7.71573 42 1 35.2843 1 27H-1C-1 36.3888 6.61116 44 16 44V42ZM44 42L16 42V44L44 44V42ZM54.8573 51.8814L44.6867 42.2731L43.3133 43.7269L53.4838 53.3352L54.8573 51.8814ZM56.2307 51.8814C55.8453 52.2455 55.2427 52.2455 54.8573 51.8814L53.4838 53.3352C54.6401 54.4275 56.4479 54.4275 57.6042 53.3352L56.2307 51.8814ZM66.4013 42.2731L56.2307 51.8814L57.6042 53.3352L67.7747 43.7269L66.4013 42.2731ZM95 42H67.088V44H95V42ZM110 27C110 35.2843 103.284 42 95 42V44C104.389 44 112 36.3888 112 27H110ZM110 24V27H112V24H110ZM95 9C103.284 9 110 15.7157 110 24H112C112 14.6112 104.389 7 95 7V9ZM16 9H95V7H16V9Z" fill="#4065F5" mask="url(#path-1-inside-1_471_2566)"/>
<path d="M20 15.75C16.2822 15.75 13.25 18.7822 13.25 22.5C13.25 23.5547 13.6777 24.7646 14.2578 26.0859C14.8379 27.4072 15.585 28.8105 16.3438 30.1172C17.8613 32.7334 19.3906 34.9219 19.3906 34.9219L20 35.8125L20.6094 34.9219C20.6094 34.9219 22.1387 32.7334 23.6562 30.1172C24.415 28.8105 25.1621 27.4072 25.7422 26.0859C26.3223 24.7646 26.75 23.5547 26.75 22.5C26.75 18.7822 23.7178 15.75 20 15.75ZM20 17.25C22.9092 17.25 25.25 19.5908 25.25 22.5C25.25 23.1006 24.9277 24.2373 24.3828 25.4766C23.8379 26.7158 23.085 28.0898 22.3438 29.3672C21.166 31.4004 20.4336 32.4756 20 33.1172C19.5664 32.4756 18.834 31.4004 17.6562 29.3672C16.915 28.0898 16.1621 26.7158 15.6172 25.4766C15.0723 24.2373 14.75 23.1006 14.75 22.5C14.75 19.5908 17.0908 17.25 20 17.25ZM20 21C19.1709 21 18.5 21.6709 18.5 22.5C18.5 23.3291 19.1709 24 20 24C20.8291 24 21.5 23.3291 21.5 22.5C21.5 21.6709 20.8291 21 20 21Z" fill="white"/>
<circle cx="109" cy="10" r="9.5" fill="#4065F5" stroke="#4065F5"/>
<path d="M108.268 13.5312V11.3398H106.076V9.875H108.268V7.68359H109.732V9.875H111.924V11.3398H109.732V13.5312H108.268Z" fill="white"/>
</svg>
