<svg width="111" height="46" viewBox="0 0 111 46" fill="none" xmlns="http://www.w3.org/2000/svg">
<mask id="path-1-inside-1_471_2587" fill="white">
<path fill-rule="evenodd" clip-rule="evenodd" d="M16 0C7.16344 0 0 7.16344 0 16V19C0 27.8366 7.16344 35 16 35L44 35L54.1705 44.6083C54.9414 45.3365 56.1466 45.3365 56.9175 44.6083L67.088 35H95C103.837 35 111 27.8366 111 19V16C111 7.16344 103.837 0 95 0H16Z"/>
</mask>
<path fill-rule="evenodd" clip-rule="evenodd" d="M16 0C7.16344 0 0 7.16344 0 16V19C0 27.8366 7.16344 35 16 35L44 35L54.1705 44.6083C54.9414 45.3365 56.1466 45.3365 56.9175 44.6083L67.088 35H95C103.837 35 111 27.8366 111 19V16C111 7.16344 103.837 0 95 0H16Z" fill="#4065F5"/>
<path d="M16 35V34V35ZM44 35L44.6867 34.2731L44.3977 34H44V35ZM54.1705 44.6083L53.4838 45.3352V45.3352L54.1705 44.6083ZM56.9175 44.6083L56.2307 43.8814L56.9175 44.6083ZM67.088 35V34H66.6903L66.4013 34.2731L67.088 35ZM1 16C1 7.71573 7.71573 1 16 1V-1C6.61116 -1 -1 6.61116 -1 16H1ZM1 19V16H-1V19H1ZM16 34C7.71573 34 1 27.2843 1 19H-1C-1 28.3888 6.61116 36 16 36V34ZM44 34L16 34V36L44 36V34ZM54.8573 43.8814L44.6867 34.2731L43.3133 35.7269L53.4838 45.3352L54.8573 43.8814ZM56.2307 43.8814C55.8453 44.2455 55.2427 44.2455 54.8573 43.8814L53.4838 45.3352C54.6401 46.4275 56.4479 46.4275 57.6042 45.3352L56.2307 43.8814ZM66.4013 34.2731L56.2307 43.8814L57.6042 45.3352L67.7747 35.7269L66.4013 34.2731ZM95 34H67.088V36H95V34ZM110 19C110 27.2843 103.284 34 95 34V36C104.389 36 112 28.3888 112 19H110ZM110 16V19H112V16H110ZM95 1C103.284 1 110 7.71573 110 16H112C112 6.61116 104.389 -1 95 -1V1ZM16 1H95V-1H16V1Z" fill="#4065F5" mask="url(#path-1-inside-1_471_2587)"/>
<path d="M20 7.75C16.2822 7.75 13.25 10.7822 13.25 14.5C13.25 15.5547 13.6777 16.7646 14.2578 18.0859C14.8379 19.4072 15.585 20.8105 16.3438 22.1172C17.8613 24.7334 19.3906 26.9219 19.3906 26.9219L20 27.8125L20.6094 26.9219C20.6094 26.9219 22.1387 24.7334 23.6562 22.1172C24.415 20.8105 25.1621 19.4072 25.7422 18.0859C26.3223 16.7646 26.75 15.5547 26.75 14.5C26.75 10.7822 23.7178 7.75 20 7.75ZM20 9.25C22.9092 9.25 25.25 11.5908 25.25 14.5C25.25 15.1006 24.9277 16.2373 24.3828 17.4766C23.8379 18.7158 23.085 20.0898 22.3438 21.3672C21.166 23.4004 20.4336 24.4756 20 25.1172C19.5664 24.4756 18.834 23.4004 17.6562 21.3672C16.915 20.0898 16.1621 18.7158 15.6172 17.4766C15.0723 16.2373 14.75 15.1006 14.75 14.5C14.75 11.5908 17.0908 9.25 20 9.25ZM20 13C19.1709 13 18.5 13.6709 18.5 14.5C18.5 15.3291 19.1709 16 20 16C20.8291 16 21.5 15.3291 21.5 14.5C21.5 13.6709 20.8291 13 20 13Z" fill="white"/>
</svg>
