<svg width="24" height="25" viewBox="0 0 24 25" fill="none" xmlns="http://www.w3.org/2000/svg">
<g id="map-marker-alt-solid">
<path id="Vector" d="M12 2.76172C8.28223 2.76172 5.25 5.79395 5.25 9.51172C5.25 10.5664 5.67773 11.7764 6.25781 13.0977C6.83789 14.4189 7.58496 15.8223 8.34375 17.1289C9.86133 19.7451 11.3906 21.9336 11.3906 21.9336L12 22.8242L12.6094 21.9336C12.6094 21.9336 14.1387 19.7451 15.6562 17.1289C16.415 15.8223 17.1621 14.4189 17.7422 13.0977C18.3223 11.7764 18.75 10.5664 18.75 9.51172C18.75 5.79395 15.7178 2.76172 12 2.76172ZM12 4.26172C14.9092 4.26172 17.25 6.60254 17.25 9.51172C17.25 10.1123 16.9277 11.249 16.3828 12.4883C15.8379 13.7275 15.085 15.1016 14.3438 16.3789C13.166 18.4121 12.4336 19.4873 12 20.1289C11.5664 19.4873 10.834 18.4121 9.65625 16.3789C8.91504 15.1016 8.16211 13.7275 7.61719 12.4883C7.07227 11.249 6.75 10.1123 6.75 9.51172C6.75 6.60254 9.09082 4.26172 12 4.26172ZM12 8.01172C11.1709 8.01172 10.5 8.68262 10.5 9.51172C10.5 10.3408 11.1709 11.0117 12 11.0117C12.8291 11.0117 13.5 10.3408 13.5 9.51172C13.5 8.68262 12.8291 8.01172 12 8.01172Z" fill="white"/>
</g>
</svg>
