<svg width="75" height="75" viewBox="0 0 75 75" fill="none" xmlns="http://www.w3.org/2000/svg">
<g id="Vector">
<path d="M75 37.5C75 58.2107 58.2107 75 37.5 75C16.7893 75 0 58.2107 0 37.5C0 16.7893 16.7893 0 37.5 0C58.2107 0 75 16.7893 75 37.5Z" fill="#D9D9D9"/>
<path d="M37.5 16.875C30.271 16.875 24.375 22.771 24.375 30C24.375 34.519 26.6821 38.5327 30.1758 40.8984C23.4888 43.7695 18.75 50.4053 18.75 58.125H22.5C22.5 49.8193 29.1943 43.125 37.5 43.125C45.8057 43.125 52.5 49.8193 52.5 58.125H56.25C56.25 50.4053 51.5112 43.7695 44.8242 40.8984C48.3179 38.5327 50.625 34.519 50.625 30C50.625 22.771 44.729 16.875 37.5 16.875ZM37.5 20.625C42.7002 20.625 46.875 24.7998 46.875 30C46.875 35.2002 42.7002 39.375 37.5 39.375C32.2998 39.375 28.125 35.2002 28.125 30C28.125 24.7998 32.2998 20.625 37.5 20.625Z" fill="white"/>
</g>
</svg>
