<svg width="30" height="30" viewBox="0 0 30 30" fill="none" xmlns="http://www.w3.org/2000/svg">
<path d="M20.9918 17.0001C21.2311 16.3606 21.3525 15.683 21.3501 15.0001C21.3501 13.484 20.7478 12.0299 19.6757 10.9578C18.6037 9.88574 17.1496 9.28345 15.6334 9.28345C14.959 9.28424 14.2902 9.40559 13.6584 9.64178L15.0001 11.0251C15.2041 10.9925 15.4102 10.9758 15.6168 10.9751C16.6888 10.9729 17.7182 11.3949 18.4801 12.149C19.242 12.9032 19.6746 13.9281 19.6834 15.0001C19.6828 15.2067 19.666 15.4128 19.6334 15.6168L20.9918 17.0001Z" fill="black"/>
<path d="M28.5749 14.6082C25.7666 9.41657 20.8416 6.2749 15.3916 6.2749C13.9077 6.27839 12.4338 6.51747 11.0249 6.98324L12.3666 8.33324C13.3548 8.07784 14.3709 7.94628 15.3916 7.94157C20.0832 7.94157 24.3499 10.5582 26.8916 14.9666C25.9592 16.6021 24.7232 18.0446 23.2499 19.2166L24.4332 20.3999C26.1383 19.0244 27.5544 17.3251 28.5999 15.3999L28.8166 14.9999L28.5749 14.6082Z" fill="black"/>
<path d="M4.0584 4.81662L7.77506 8.53328C5.42583 10.0459 3.50582 12.1381 2.20007 14.6083L1.9834 15L2.20007 15.4C5.0084 20.5916 9.9334 23.7333 15.3834 23.7333C17.5106 23.7329 19.6102 23.2514 21.5251 22.325L25.6917 26.4916L27.1501 25.2416L5.4834 3.57495L4.0584 4.81662ZM12.1834 12.9416L17.7251 18.4833C17.0989 18.8709 16.3781 19.0785 15.6417 19.0833C15.1067 19.0833 14.5769 18.9775 14.0829 18.772C13.5889 18.5665 13.1404 18.2653 12.7632 17.8858C12.386 17.5063 12.0876 17.056 11.8851 16.5607C11.6826 16.0654 11.5801 15.535 11.5834 15C11.5928 14.2721 11.8002 13.5605 12.1834 12.9416ZM10.9751 11.7333C10.1954 12.8328 9.83 14.1727 9.94349 15.5158C10.057 16.8589 10.6421 18.1184 11.5952 19.0715C12.5482 20.0246 13.8078 20.6097 15.1509 20.7232C16.494 20.8367 17.8339 20.4713 18.9334 19.6916L20.2667 21.0249C18.7232 21.6847 17.062 22.0249 15.3834 22.025C10.6917 22.025 6.42506 19.4083 3.8834 15C5.10315 12.8401 6.85983 11.0318 8.9834 9.74995L10.9751 11.7333Z" fill="black"/>
</svg>
