<svg width="30" height="30" viewBox="0 0 30 30" fill="none" xmlns="http://www.w3.org/2000/svg">
<path d="M28.0167 14.6082C25.2083 9.41657 20.2833 6.2749 14.8333 6.2749C9.38335 6.2749 4.45002 9.41657 1.66668 14.6082L1.43335 14.9999L1.65002 15.3999C4.45835 20.5916 9.38335 23.7332 14.8333 23.7332C20.2833 23.7332 25.2167 20.6332 28.0167 15.3999L28.2333 14.9999L28.0167 14.6082ZM14.8333 22.0249C10.1417 22.0249 5.83335 19.4082 3.33335 14.9999C5.83335 10.5916 10.1417 7.9749 14.8333 7.9749C19.525 7.9749 23.7833 10.5999 26.325 14.9999C23.7833 19.4082 19.5167 22.0249 14.8333 22.0249Z" fill="black"/>
<path d="M15.0751 9.30826C13.9452 9.3165 12.8431 9.65941 11.9079 10.2937C10.9728 10.9279 10.2466 11.8251 9.82107 12.8718C9.39552 13.9185 9.28971 15.0679 9.51701 16.1747C9.7443 17.2816 10.2945 18.2962 11.0981 19.0905C11.9017 19.8848 12.9227 20.4232 14.0321 20.6376C15.1415 20.852 16.2896 20.7328 17.3313 20.2951C18.373 19.8574 19.2617 19.1208 19.885 18.1783C20.5083 17.2359 20.8383 16.1298 20.8334 14.9999C20.8302 14.2478 20.6785 13.5037 20.3871 12.8103C20.0958 12.1169 19.6704 11.4878 19.1355 10.959C18.6006 10.4303 17.9666 10.0123 17.2698 9.72902C16.573 9.44575 15.8272 9.30277 15.0751 9.30826ZM15.0751 19.0749C14.277 19.0667 13.4991 18.8228 12.8391 18.3739C12.1791 17.925 11.6665 17.2912 11.3656 16.5519C11.0647 15.8126 10.989 15.0009 11.1479 14.2187C11.3069 13.4365 11.6934 12.7188 12.2589 12.1555C12.8244 11.5923 13.5438 11.2087 14.3266 11.053C15.1094 10.8972 15.9208 10.9763 16.6589 11.2802C17.3969 11.5841 18.0287 12.0993 18.4749 12.7611C18.9211 13.4229 19.1618 14.2018 19.1668 14.9999C19.169 15.5371 19.0645 16.0694 18.8595 16.5658C18.6545 17.0623 18.3529 17.5132 17.9723 17.8923C17.5917 18.2713 17.1396 18.571 16.6423 18.7741C16.1449 18.9771 15.6122 19.0793 15.0751 19.0749Z" fill="black"/>
</svg>
