<svg width="37" height="35" viewBox="0 0 37 35" fill="none" xmlns="http://www.w3.org/2000/svg">
<g id="Star 14">
<path d="M18.0245 0.463525C18.1741 0.00286961 18.8259 0.00287008 18.9755 0.463525L22.878 12.4742C22.945 12.6802 23.1369 12.8197 23.3536 12.8197H35.9823C36.4667 12.8197 36.668 13.4395 36.2762 13.7242L26.0593 21.1472C25.8841 21.2745 25.8107 21.5002 25.8777 21.7062L29.7802 33.7168C29.9299 34.1775 29.4026 34.5605 29.0108 34.2758L18.7939 26.8528C18.6186 26.7255 18.3814 26.7255 18.2061 26.8528L7.98924 34.2758C7.59739 34.5605 7.07015 34.1775 7.21982 33.7168L11.1223 21.7062C11.1893 21.5002 11.1159 21.2745 10.9407 21.1472L0.72382 13.7242C0.331963 13.4395 0.53335 12.8197 1.01771 12.8197H13.6464C13.8631 12.8197 14.055 12.6802 14.122 12.4742L18.0245 0.463525Z" fill="#F6F6F6"/>
<path d="M18.5 0.618035L22.4025 12.6287C22.5364 13.0407 22.9203 13.3197 23.3536 13.3197H35.9823L25.7654 20.7426C25.4149 20.9973 25.2683 21.4487 25.4022 21.8607L29.3046 33.8713L19.0878 26.4483C18.7373 26.1937 18.2627 26.1937 17.9122 26.4483L7.69535 33.8713L11.5978 21.8607C11.7317 21.4487 11.5851 20.9973 11.2346 20.7426L1.01771 13.3197H13.6464C14.0797 13.3197 14.4636 13.0407 14.5975 12.6287L18.5 0.618035Z" stroke="black" stroke-opacity="0.2"/>
</g>
</svg>
