<svg width="40" height="40" viewBox="0 0 40 40" fill="none" xmlns="http://www.w3.org/2000/svg">
<g id="Vector">
<path d="M40 20C40 31.0457 31.0457 40 20 40C8.9543 40 0 31.0457 0 20C0 8.9543 8.9543 0 20 0C31.0457 0 40 8.9543 40 20Z" fill="#D9D9D9"/>
<path d="M20 9C16.1445 9 13 12.1445 13 16C13 18.4102 14.2305 20.5508 16.0938 21.8125C12.5273 23.3438 10 26.8828 10 31H12C12 26.5703 15.5703 23 20 23C24.4297 23 28 26.5703 28 31H30C30 26.8828 27.4727 23.3438 23.9062 21.8125C25.7695 20.5508 27 18.4102 27 16C27 12.1445 23.8555 9 20 9ZM20 11C22.7734 11 25 13.2266 25 16C25 18.7734 22.7734 21 20 21C17.2266 21 15 18.7734 15 16C15 13.2266 17.2266 11 20 11Z" fill="white"/>
</g>
</svg>
