<svg width="24" height="24" viewBox="0 0 24 24" fill="none" xmlns="http://www.w3.org/2000/svg">
<path d="M19.2147 20.3037C18.1219 17.381 15.304 15.3 12 15.3C8.69601 15.3 5.87806 17.381 4.78528 20.3037M19.2147 20.3037C21.5339 18.287 23 15.3147 23 12C23 5.92487 18.0751 1 12 1C5.92487 1 1 5.92487 1 12C1 15.3147 2.46613 18.287 4.78528 20.3037M19.2147 20.3037C17.2834 21.9832 14.7604 23 12 23C9.23957 23 6.71663 21.9832 4.78528 20.3037M15.3 8.7C15.3 10.5225 13.8225 12 12 12C10.1775 12 8.7 10.5225 8.7 8.7C8.7 6.87746 10.1775 5.4 12 5.4C13.8225 5.4 15.3 6.87746 15.3 8.7Z" stroke="#969696" stroke-width="2" stroke-linejoin="round"/>
</svg>
