<svg width="22" height="22" viewBox="0 0 22 22" fill="none" xmlns="http://www.w3.org/2000/svg">
<path fill-rule="evenodd" clip-rule="evenodd" d="M22 11C22 14.3147 20.5339 17.287 18.2147 19.3037C16.2834 20.9832 13.7604 22 11 22C8.23957 22 5.71663 20.9832 3.78528 19.3037C1.46613 17.287 0 14.3147 0 11C0 4.92487 4.92487 0 11 0C17.0751 0 22 4.92487 22 11ZM11 18.7C12.9323 18.7 14.6984 17.9882 16.0503 16.8126C16.206 16.6773 16.3561 16.5358 16.5004 16.3885C15.3114 14.4654 13.2916 13.2 11 13.2C8.70842 13.2 6.68866 14.4654 5.49966 16.3885C5.64394 16.5358 5.79409 16.6773 5.94972 16.8126C7.30167 17.9882 9.06773 18.7 11 18.7ZM11 11C12.8225 11 14.3 9.52254 14.3 7.7C14.3 5.87746 12.8225 4.4 11 4.4C9.17746 4.4 7.7 5.87746 7.7 7.7C7.7 9.52254 9.17746 11 11 11Z" fill="#4065F6"/>
</svg>
