<svg width="16" height="16" viewBox="0 0 16 16" fill="none" xmlns="http://www.w3.org/2000/svg">
<g id="Navigation / Map_Pin">
<path id="Vector" fill-rule="evenodd" clip-rule="evenodd" d="M7.08213 13.5501C5.82965 12.5246 3 9.84978 3 6.61523C3 5.39116 3.49167 4.21744 4.36683 3.35189C5.242 2.48634 6.42904 2 7.66672 2C8.9044 2 10.0913 2.48626 10.9665 3.35181C11.8416 4.21737 12.3333 5.39145 12.3333 6.61553C12.3333 9.85008 9.50378 12.5247 8.2513 13.5502C8.07138 13.6976 7.98131 13.7711 7.84733 13.8088C7.7432 13.8381 7.58994 13.8381 7.4858 13.8088C7.35207 13.7712 7.26138 13.6969 7.08213 13.5501ZM6.33333 6C6.33333 6.73638 6.93029 7.33333 7.66667 7.33333C8.40305 7.33333 9 6.73638 9 6C9 5.26362 8.40305 4.66667 7.66667 4.66667C6.93029 4.66667 6.33333 5.26362 6.33333 6Z" fill="#D9D9D9"/>
</g>
</svg>
