<svg width="36" height="43" viewBox="0 0 36 43" fill="none" xmlns="http://www.w3.org/2000/svg">
<mask id="path-1-inside-1_181_2702" fill="white">
<path fill-rule="evenodd" clip-rule="evenodd" d="M16.5 0.457031C7.66344 0.457031 0.5 7.62047 0.5 16.457V19.5279C0.5 25.2509 3.50476 30.2722 8.02274 33.1001C8.88432 33.6394 9.71171 34.2424 10.3879 35.0012L16.5068 41.8683C17.3022 42.7609 18.6978 42.7609 19.4932 41.8683L25.6121 35.0012C26.2883 34.2424 27.1157 33.6394 27.9773 33.1001C32.4952 30.2722 35.5 25.2509 35.5 19.5279V16.457C35.5 7.62047 28.3366 0.457031 19.5 0.457031H16.5Z"/>
</mask>
<path fill-rule="evenodd" clip-rule="evenodd" d="M16.5 0.457031C7.66344 0.457031 0.5 7.62047 0.5 16.457V19.5279C0.5 25.2509 3.50476 30.2722 8.02274 33.1001C8.88432 33.6394 9.71171 34.2424 10.3879 35.0012L16.5068 41.8683C17.3022 42.7609 18.6978 42.7609 19.4932 41.8683L25.6121 35.0012C26.2883 34.2424 27.1157 33.6394 27.9773 33.1001C32.4952 30.2722 35.5 25.2509 35.5 19.5279V16.457C35.5 7.62047 28.3366 0.457031 19.5 0.457031H16.5Z" fill="white"/>
<path d="M16.5068 41.8683L15.7602 42.5335L16.5068 41.8683ZM19.4932 41.8683L20.2398 42.5335V42.5335L19.4932 41.8683ZM25.6121 35.0012L26.3587 35.6665L25.6121 35.0012ZM27.9773 33.1001L28.5078 33.9477L27.9773 33.1001ZM8.02274 33.1001L7.49218 33.9477L8.02274 33.1001ZM1.5 16.457C1.5 8.17276 8.21573 1.45703 16.5 1.45703V-0.542969C7.11116 -0.542969 -0.5 7.06819 -0.5 16.457H1.5ZM1.5 19.5279V16.457H-0.5V19.5279H1.5ZM8.55331 32.2524C4.3151 29.5996 1.5 24.8921 1.5 19.5279H-0.5C-0.5 25.6097 2.69441 30.9447 7.49218 33.9477L8.55331 32.2524ZM17.2534 41.203L11.1345 34.336L9.6413 35.6665L15.7602 42.5335L17.2534 41.203ZM18.7466 41.203C18.3489 41.6493 17.6511 41.6493 17.2534 41.203L15.7602 42.5335C16.9532 43.8725 19.0468 43.8725 20.2398 42.5335L18.7466 41.203ZM24.8655 34.336L18.7466 41.203L20.2398 42.5335L26.3587 35.6665L24.8655 34.336ZM34.5 19.5279C34.5 24.8921 31.6849 29.5996 27.4467 32.2524L28.5078 33.9477C33.3056 30.9447 36.5 25.6097 36.5 19.5279H34.5ZM34.5 16.457V19.5279H36.5V16.457H34.5ZM19.5 1.45703C27.7843 1.45703 34.5 8.17276 34.5 16.457H36.5C36.5 7.06819 28.8888 -0.542969 19.5 -0.542969V1.45703ZM16.5 1.45703H19.5V-0.542969H16.5V1.45703ZM26.3587 35.6665C26.9437 35.01 27.6803 34.4657 28.5078 33.9477L27.4467 32.2524C26.5511 32.813 25.6329 33.4748 24.8655 34.336L26.3587 35.6665ZM7.49218 33.9477C8.31968 34.4657 9.05628 35.01 9.6413 35.6665L11.1345 34.336C10.3671 33.4748 9.44895 32.813 8.55331 32.2524L7.49218 33.9477Z" fill="#4065F5" mask="url(#path-1-inside-1_181_2702)"/>
</svg>
