<svg width="24" height="24" viewBox="0 0 24 24" fill="none" xmlns="http://www.w3.org/2000/svg">
<path d="M12 2.24219C8.28223 2.24219 5.25 5.27441 5.25 8.99219C5.25 10.0469 5.67773 11.2568 6.25781 12.5781C6.83789 13.8994 7.58496 15.3027 8.34375 16.6094C9.86133 19.2256 11.3906 21.4141 11.3906 21.4141L12 22.3047L12.6094 21.4141C12.6094 21.4141 14.1387 19.2256 15.6562 16.6094C16.415 15.3027 17.1621 13.8994 17.7422 12.5781C18.3223 11.2568 18.75 10.0469 18.75 8.99219C18.75 5.27441 15.7178 2.24219 12 2.24219ZM12 3.74219C14.9092 3.74219 17.25 6.08301 17.25 8.99219C17.25 9.59277 16.9277 10.7295 16.3828 11.9688C15.8379 13.208 15.085 14.582 14.3438 15.8594C13.166 17.8926 12.4336 18.9678 12 19.6094C11.5664 18.9678 10.834 17.8926 9.65625 15.8594C8.91504 14.582 8.16211 13.208 7.61719 11.9688C7.07227 10.7295 6.75 9.59277 6.75 8.99219C6.75 6.08301 9.09082 3.74219 12 3.74219ZM12 7.49219C11.1709 7.49219 10.5 8.16309 10.5 8.99219C10.5 9.82129 11.1709 10.4922 12 10.4922C12.8291 10.4922 13.5 9.82129 13.5 8.99219C13.5 8.16309 12.8291 7.49219 12 7.49219Z" fill="#4065F5"/>
</svg>
