<svg width="71" height="70" viewBox="0 0 71 70" fill="none" xmlns="http://www.w3.org/2000/svg">
<g id="exclamation-circle-solid">
<path id="Vector" d="M35.5 8.75C21.0249 8.75 9.25 20.5249 9.25 35C9.25 49.4751 21.0249 61.25 35.5 61.25C49.9751 61.25 61.75 49.4751 61.75 35C61.75 20.5249 49.9751 8.75 35.5 8.75ZM35.5 13.125C47.6082 13.125 57.375 22.8918 57.375 35C57.375 47.1082 47.6082 56.875 35.5 56.875C23.3918 56.875 13.625 47.1082 13.625 35C13.625 22.8918 23.3918 13.125 35.5 13.125ZM33.3125 21.875V39.375H37.6875V21.875H33.3125ZM33.3125 43.75V48.125H37.6875V43.75H33.3125Z" fill="#999999" fill-opacity="0.6"/>
</g>
</svg>
