<svg width="16" height="16" viewBox="0 0 16 16" fill="none" xmlns="http://www.w3.org/2000/svg">
<g id="Group 3472">
<g id="Group 1996">
<path id="Vector" d="M5 8C6.10457 8 7 7.10457 7 6C7 4.89543 6.10457 4 5 4C3.89543 4 3 4.89543 3 6C3 7.10457 3.89543 8 5 8Z" fill="#D9D9D9"/>
<path id="Vector_2" d="M11 8C12.1046 8 13 7.10457 13 6C13 4.89543 12.1046 4 11 4C9.89543 4 9 4.89543 9 6C9 7.10457 9.89543 8 11 8Z" fill="#D9D9D9"/>
<path id="Vector_3" d="M9 12C8.98774 10.3415 7.20179 9 5.0002 9C2.79862 9 1.01226 10.3415 1 12H9Z" fill="#D9D9D9"/>
<path id="Vector_4" d="M15 12C14.9877 10.3415 13.2018 9 11.0002 9C8.79862 9 7.01226 10.3415 7 12H15Z" fill="#D9D9D9"/>
</g>
</g>
</svg>
