<svg width="16" height="16" viewBox="0 0 16 16" fill="none" xmlns="http://www.w3.org/2000/svg">
<g id="Communication / Phone">
<path id="Vector" d="M5.09701 2C5.64221 2 6.13249 2.33193 6.33497 2.83815L7.03844 4.59539C7.22033 5.05011 7.13774 5.56797 6.82422 5.9442L6.44596 6.39779C6.00449 6.92756 6.04052 7.70641 6.52815 8.19404L7.80546 9.47252C8.29309 9.96015 9.07258 9.99526 9.60235 9.55378L10.056 9.17546C10.4322 8.86193 10.9499 8.78007 11.4046 8.96196L13.1622 9.66475C13.6685 9.86724 14.0003 10.3574 14.0003 10.9026L14 12.7368C14 13.4344 13.4346 14 12.737 14C6.80719 14 2 9.19281 2 3.26302C2 2.5654 2.56554 2 3.26316 2H5.09701Z" fill="#D9D9D9"/>
</g>
</svg>
