<svg width="53" height="53" viewBox="0 0 53 53" fill="none" xmlns="http://www.w3.org/2000/svg">
<path d="M32.0209 18.7708C32.0209 20.235 31.4392 21.6393 30.4038 22.6747C29.3685 23.71 27.9642 24.2917 26.5 24.2917C25.0358 24.2917 23.6316 23.71 22.5962 22.6747C21.5608 21.6393 20.9792 20.235 20.9792 18.7708C20.9792 17.3066 21.5608 15.9024 22.5962 14.867C23.6316 13.8317 25.0358 13.25 26.5 13.25C27.9642 13.25 29.3685 13.8317 30.4038 14.867C31.4392 15.9024 32.0209 17.3066 32.0209 18.7708Z" fill="#444444"/>
<path d="M34.4081 35.3333H18.7841C17.8721 35.3333 17.3885 34.3196 18.0178 33.6593C19.8883 31.6961 23.3178 28.7083 26.8688 28.7083C30.453 28.7083 33.5777 31.7558 35.2163 33.7168C35.7772 34.3881 35.2826 35.3333 34.4081 35.3333Z" fill="#444444" stroke="#444444" stroke-width="2" stroke-linecap="round" stroke-linejoin="round"/>
<path d="M26.5 48.5833C38.6963 48.5833 48.5834 38.6963 48.5834 26.5C48.5834 14.3037 38.6963 4.41663 26.5 4.41663C14.3037 4.41663 4.41669 14.3037 4.41669 26.5C4.41669 38.6963 14.3037 48.5833 26.5 48.5833Z" stroke="#444444" stroke-width="2"/>
</svg>
