<svg width="13" height="13" viewBox="0 0 13 13" fill="none" xmlns="http://www.w3.org/2000/svg">
<path d="M3.02344 0.6875L2.82031 8.60938H0.820312L0.617188 0.6875H3.02344ZM1.83594 12.1406C1.10156 12.1406 0.507812 11.5469 0.523438 10.8281C0.507812 10.1094 1.10156 9.53125 1.83594 9.53125C2.52344 9.53125 3.13281 10.1094 3.13281 10.8281C3.13281 11.5469 2.52344 12.1406 1.83594 12.1406ZM7.17969 8.4375C7.19531 6.5 7.71094 5.89062 8.64844 5.3125C9.32031 4.875 9.83594 4.39062 9.83594 3.67188C9.83594 2.89062 9.22656 2.375 8.47656 2.375C7.74219 2.375 7.07031 2.85938 7.03906 3.78125H4.82031C4.86719 1.57812 6.49219 0.53125 8.49219 0.53125C10.6641 0.53125 12.2109 1.67188 12.2109 3.59375C12.2109 4.875 11.5547 5.70312 10.5234 6.3125C9.64844 6.84375 9.25781 7.34375 9.24219 8.4375V8.60938H7.17969V8.4375ZM8.25781 12.1406C7.52344 12.1406 6.92969 11.5469 6.94531 10.8281C6.92969 10.1094 7.52344 9.53125 8.25781 9.53125C8.94531 9.53125 9.55469 10.1094 9.55469 10.8281C9.55469 11.5469 8.94531 12.1406 8.25781 12.1406Z" fill="#FF0000"/>
</svg>
