<svg width="36" height="36" viewBox="0 0 36 36" fill="none" xmlns="http://www.w3.org/2000/svg">
<mask id="path-1-inside-1_4_4238" fill="white">
<path d="M4.5 7.875V10.125H31.5V7.875H4.5ZM4.5 16.875V19.125H31.5V16.875H4.5ZM4.5 25.875V28.125H31.5V25.875H4.5Z"/>
</mask>
<path d="M4.5 7.875V10.125H31.5V7.875H4.5ZM4.5 16.875V19.125H31.5V16.875H4.5ZM4.5 25.875V28.125H31.5V25.875H4.5Z" fill="black"/>
<path d="M4.5 7.875V4.875H1.5V7.875H4.5ZM4.5 10.125H1.5V13.125H4.5V10.125ZM31.5 10.125V13.125H34.5V10.125H31.5ZM31.5 7.875H34.5V4.875H31.5V7.875ZM4.5 16.875V13.875H1.5V16.875H4.5ZM4.5 19.125H1.5V22.125H4.5V19.125ZM31.5 19.125V22.125H34.5V19.125H31.5ZM31.5 16.875H34.5V13.875H31.5V16.875ZM4.5 25.875V22.875H1.5V25.875H4.5ZM4.5 28.125H1.5V31.125H4.5V28.125ZM31.5 28.125V31.125H34.5V28.125H31.5ZM31.5 25.875H34.5V22.875H31.5V25.875ZM1.5 7.875V10.125H7.5V7.875H1.5ZM4.5 13.125H31.5V7.125H4.5V13.125ZM34.5 10.125V7.875H28.5V10.125H34.5ZM31.5 4.875H4.5V10.875H31.5V4.875ZM1.5 16.875V19.125H7.5V16.875H1.5ZM4.5 22.125H31.5V16.125H4.5V22.125ZM34.5 19.125V16.875H28.5V19.125H34.5ZM31.5 13.875H4.5V19.875H31.5V13.875ZM1.5 25.875V28.125H7.5V25.875H1.5ZM4.5 31.125H31.5V25.125H4.5V31.125ZM34.5 28.125V25.875H28.5V28.125H34.5ZM31.5 22.875H4.5V28.875H31.5V22.875Z" fill="black" mask="url(#path-1-inside-1_4_4238)"/>
</svg>
