<?xml version="1.0" standalone="no"?>
<!DOCTYPE svg PUBLIC "-//W3C//DTD SVG 20010904//EN"
 "http://www.w3.org/TR/2001/REC-SVG-20010904/DTD/svg10.dtd">
<svg version="1.0" xmlns="http://www.w3.org/2000/svg"
 width="400.000000pt" height="200.000000pt" viewBox="0 0 400.000000 200.000000"
 preserveAspectRatio="xMidYMid meet">

<g transform="translate(0.000000,200.000000) scale(0.100000,-0.100000)"
fill="#000000" stroke="none">
<path d="M0 1000 l0 -1000 2000 0 2000 0 0 1000 0 1000 -2000 0 -2000 0 0
-1000z m1522 81 c21 -90 40 -166 42 -168 2 -3 48 72 101 166 l97 171 73 0 72
0 -23 -132 c-13 -73 -33 -186 -45 -250 l-21 -118 -59 0 c-41 0 -59 4 -59 13 0
7 9 63 21 126 11 62 19 117 17 122 -2 6 -37 -51 -78 -125 l-74 -136 -51 0 -51
0 -29 148 c-16 81 -30 140 -32 132 -2 -8 -14 -73 -26 -145 l-23 -130 -63 -3
-63 -3 6 28 c3 15 22 118 41 228 19 110 37 210 40 223 5 22 10 23 77 20 l72
-3 38 -164z m592 152 c-2 -10 -20 -110 -39 -223 -20 -113 -38 -217 -41 -232
-5 -27 -8 -28 -65 -28 -32 0 -59 3 -59 8 0 4 18 116 42 250 l42 242 62 0 c54
0 62 -2 58 -17z m445 -25 c-4 -24 -8 -46 -9 -50 0 -4 -30 -8 -67 -10 l-68 -3
-34 -197 -35 -198 -61 0 -62 0 29 163 c15 89 31 179 34 200 l7 37 -68 0 -67 0
7 33 c15 73 -4 67 209 67 l193 0 -8 -42z m187 15 c-3 -16 -22 -120 -41 -233
-20 -113 -38 -213 -41 -222 -4 -15 -17 -18 -65 -18 l-61 0 6 28 c3 15 22 121
42 237 19 116 37 216 39 223 3 8 25 12 65 12 l62 0 -6 -27z"/>
</g>
</svg>
