<svg width="80" height="16" viewBox="0 0 80 16" fill="none" xmlns="http://www.w3.org/2000/svg">
<path d="M7.25762 1.84868C7.52634 1.1795 8.47366 1.1795 8.74238 1.84868L9.88184 4.68619C9.99628 4.97115 10.2637 5.16546 10.5701 5.18624L13.6208 5.39309C14.3403 5.44188 14.633 6.34282 14.0797 6.80518L11.7331 8.76571C11.4975 8.96261 11.3953 9.27701 11.4703 9.57481L12.2163 12.5402C12.3922 13.2395 11.6258 13.7963 11.0151 13.4129L8.42537 11.787C8.16529 11.6238 7.83471 11.6238 7.57463 11.787L4.98494 13.4129C4.37421 13.7963 3.60782 13.2395 3.78375 12.5402L4.52975 9.57481C4.60467 9.27701 4.50251 8.96261 4.26686 8.76571L1.92034 6.80518C1.36695 6.34282 1.65969 5.44188 2.37915 5.39309L5.4299 5.18624C5.73628 5.16546 6.00372 4.97115 6.11816 4.68619L7.25762 1.84868Z" fill="#FAD73B" stroke="#FAD73B" stroke-width="0.5"/>
<path d="M23.2576 1.84868C23.5263 1.1795 24.4737 1.1795 24.7424 1.84868L25.8818 4.68619C25.9963 4.97115 26.2637 5.16546 26.5701 5.18624L29.6208 5.39309C30.3403 5.44188 30.633 6.34282 30.0797 6.80518L27.7331 8.76571C27.4975 8.96261 27.3953 9.27701 27.4703 9.57481L28.2163 12.5402C28.3922 13.2395 27.6258 13.7963 27.0151 13.4129L24.4254 11.787C24.1653 11.6238 23.8347 11.6238 23.5746 11.787L20.9849 13.4129C20.3742 13.7963 19.6078 13.2395 19.7837 12.5402L20.5297 9.57481C20.6047 9.27701 20.5025 8.96261 20.2669 8.76571L17.9203 6.80518C17.367 6.34282 17.6597 5.44188 18.3792 5.39309L21.4299 5.18624C21.7363 5.16546 22.0037 4.97115 22.1182 4.68619L23.2576 1.84868Z" fill="#FAD73B" stroke="#FAD73B" stroke-width="0.5"/>
<path d="M39.2576 1.84868C39.5263 1.1795 40.4737 1.1795 40.7424 1.84868L41.8818 4.68619C41.9963 4.97115 42.2637 5.16546 42.5701 5.18624L45.6208 5.39309C46.3403 5.44188 46.633 6.34282 46.0797 6.80518L43.7331 8.76571C43.4975 8.96261 43.3953 9.27701 43.4703 9.57481L44.2163 12.5402C44.3922 13.2395 43.6258 13.7963 43.0151 13.4129L40.4254 11.787C40.1653 11.6238 39.8347 11.6238 39.5746 11.787L36.9849 13.4129C36.3742 13.7963 35.6078 13.2395 35.7837 12.5402L36.5297 9.57481C36.6047 9.27701 36.5025 8.96261 36.2669 8.76571L33.9203 6.80518C33.367 6.34282 33.6597 5.44188 34.3792 5.39309L37.4299 5.18624C37.7363 5.16546 38.0037 4.97115 38.1182 4.68619L39.2576 1.84868Z" fill="#FAD73B" stroke="#FAD73B" stroke-width="0.5"/>
<path d="M55.2576 1.84868C55.5263 1.1795 56.4737 1.1795 56.7424 1.84868L57.8818 4.68619C57.9963 4.97115 58.2637 5.16546 58.5701 5.18624L61.6208 5.39309C62.3403 5.44188 62.633 6.34282 62.0797 6.80518L59.7331 8.76571C59.4975 8.96261 59.3953 9.27701 59.4703 9.57481L60.2163 12.5402C60.3922 13.2395 59.6258 13.7963 59.0151 13.4129L56.4254 11.787C56.1653 11.6238 55.8347 11.6238 55.5746 11.787L52.9849 13.4129C52.3742 13.7963 51.6078 13.2395 51.7837 12.5402L52.5297 9.57481C52.6047 9.27701 52.5025 8.96261 52.2669 8.76571L49.9203 6.80518C49.367 6.34282 49.6597 5.44188 50.3792 5.39309L53.4299 5.18624C53.7363 5.16546 54.0037 4.97115 54.1182 4.68619L55.2576 1.84868Z" fill="#FAD73B" stroke="#FAD73B" stroke-width="0.5"/>
<mask id="mask0_1005_7714" style="mask-type:alpha" maskUnits="userSpaceOnUse" x="49" y="1" width="14" height="13">
<path d="M55.2576 1.84868C55.5263 1.1795 56.4737 1.1795 56.7424 1.84868L57.8818 4.68619C57.9963 4.97115 58.2637 5.16546 58.5701 5.18624L61.6208 5.39309C62.3403 5.44188 62.633 6.34282 62.0797 6.80518L59.7331 8.76571C59.4975 8.96261 59.3953 9.27701 59.4703 9.57481L60.2163 12.5402C60.3922 13.2395 59.6258 13.7963 59.0151 13.4129L56.4254 11.787C56.1653 11.6238 55.8347 11.6238 55.5746 11.787L52.9849 13.4129C52.3742 13.7963 51.6078 13.2395 51.7837 12.5402L52.5297 9.57481C52.6047 9.27701 52.5025 8.96261 52.2669 8.76571L49.9203 6.80518C49.367 6.34282 49.6597 5.44188 50.3792 5.39309L53.4299 5.18624C53.7363 5.16546 54.0037 4.97115 54.1182 4.68619L55.2576 1.84868Z" fill="#FAD73B" stroke="#FAD73B" stroke-width="0.5"/>
</mask>
<g mask="url(#mask0_1005_7714)">
<rect x="49.8521" y="1.48157" width="6.2963" height="11.8519" fill="#FAD73B"/>
</g>
<path d="M71.2576 1.84868C71.5263 1.1795 72.4737 1.1795 72.7424 1.84868L73.8818 4.68619C73.9963 4.97115 74.2637 5.16546 74.5701 5.18624L77.6208 5.39309C78.3403 5.44188 78.633 6.34282 78.0797 6.80518L75.7331 8.76571C75.4975 8.96261 75.3953 9.27701 75.4703 9.57481L76.2163 12.5402C76.3922 13.2395 75.6258 13.7963 75.0151 13.4129L72.4254 11.787C72.1653 11.6238 71.8347 11.6238 71.5746 11.787L68.9849 13.4129C68.3742 13.7963 67.6078 13.2395 67.7837 12.5402L68.5297 9.57481C68.6047 9.27701 68.5025 8.96261 68.2669 8.76571L65.9203 6.80518C65.367 6.34282 65.6597 5.44188 66.3792 5.39309L69.4299 5.18624C69.7363 5.16546 70.0037 4.97115 70.1182 4.68619L71.2576 1.84868Z" fill="#5C5535" stroke="#C3A520" stroke-width="0.5"/>
</svg>
